inDegrees=no
num_controls=7
num_derivatives=13
num_iterations=170
num_multipliers=7
num_parameters=0
num_slacks=7
num_states=26
objective=6.535976
objective_accelerations=0.690086
objective_balance=0.055332
objective_effort=0.550675
objective_height=5.168241
objective_ligament=0.071644
solver_duration=1453.310962
status=Solve_Succeeded
success=true
DataType=double
version=3
OpenSimVersion=4.4-2022-07-23-0e9fedc
endheader
time	/jointset/ground_pelvis/pelvis_tilt/value	/jointset/ground_pelvis/pelvis_tx/value	/jointset/ground_pelvis/pelvis_ty/value	/jointset/hip_r/hip_flexion_r/value	/jointset/hip_r/hip_adduction_r/value	/jointset/hip_r/hip_rotation_r/value	/jointset/back/lumbar_extension/value	/jointset/patellofemoral_r/patellar_flexion_r/value	/jointset/knee_r/knee_flexion_r/value	/jointset/knee_r/knee_adduction_r/value	/jointset/knee_r/knee_rotation_r/value	/jointset/ankle_r/ankle_angle_r/value	/jointset/subtalar_r/subtalar_angle_r/value	/jointset/ground_pelvis/pelvis_tilt/speed	/jointset/ground_pelvis/pelvis_tx/speed	/jointset/ground_pelvis/pelvis_ty/speed	/jointset/hip_r/hip_flexion_r/speed	/jointset/hip_r/hip_adduction_r/speed	/jointset/hip_r/hip_rotation_r/speed	/jointset/back/lumbar_extension/speed	/jointset/patellofemoral_r/patellar_flexion_r/speed	/jointset/knee_r/knee_flexion_r/speed	/jointset/knee_r/knee_adduction_r/speed	/jointset/knee_r/knee_rotation_r/speed	/jointset/ankle_r/ankle_angle_r/speed	/jointset/subtalar_r/subtalar_angle_r/speed	/forceset/tau_hip_flexion_r	/forceset/tau_hip_adduction_r	/forceset/tau_hip_rotation_r	/forceset/tau_knee_flexion_r	/forceset/tau_ankle_angle_r	/forceset/tau_subtalar_angle_r	/forceset/tau_lumbar_extension	lambda_cid13_p0	lambda_cid14_p0	lambda_cid14_p1	lambda_cid14_p2	lambda_cid14_p3	lambda_cid14_p4	lambda_cid14_p5	/jointset/ground_pelvis/pelvis_tilt/accel	/jointset/ground_pelvis/pelvis_tx/accel	/jointset/ground_pelvis/pelvis_ty/accel	/jointset/hip_r/hip_flexion_r/accel	/jointset/hip_r/hip_adduction_r/accel	/jointset/hip_r/hip_rotation_r/accel	/jointset/back/lumbar_extension/accel	/jointset/patellofemoral_r/patellar_flexion_r/accel	/jointset/knee_r/knee_flexion_r/accel	/jointset/knee_r/knee_adduction_r/accel	/jointset/knee_r/knee_rotation_r/accel	/jointset/ankle_r/ankle_angle_r/accel	/jointset/subtalar_r/subtalar_angle_r/accel	gamma_cid13_p0	gamma_cid14_p0	gamma_cid14_p1	gamma_cid14_p2	gamma_cid14_p3	gamma_cid14_p4	gamma_cid14_p5
0.5	-0.1847278560444151	0.01685615013501419	0.8166012028595234	0.9366235275503935	-0.2459443637416414	-0.076662257997473	-0.3344176244826483	0.8561240556196581	0.8561240556196501	0.06502392778238662	0.1745272382347751	0.2756513843710747	0.03765583560464689	-0.4836753605623972	-0.1585838315321031	-0.519036516430101	2.073187634006029	-0.01997528883779297	0.4366508848527013	-0.593833264763564	2.107838414222913	2.107838414222913	-0.1813668227302355	-0.0001610000998515861	0.6144191741312447	0.1313564202942728	-0.1319687560950155	-0.02162763426514787	0.01619563859205037	-0.3591076338305021	0.07938877953912911	-0.007381591021110248	0.1729238032378538	-21.822580830139	-15.86577766991411	-2.352330845353379	-3.313025927707926	0.3783372824883863	-658.7305519703148	60.90462587177111	0.3375605817956694	0.4952883449025335	-0.516405591840605	-1.209963772933105	0.1435600968729174	-0.3571521519978317	1.643532405891789	-1.477316425738407	-1.477316425738406	0.5119472209499535	-0.03695651825820554	-0.7046783807434943	0.09372923968090527	-1.790582099836998e-07	-1.318063811374806e-07	1.653107512657643e-06	-8.90914956940933e-07	-1.031422035923607e-07	-2.407893272511668e-07	1.080269431007833e-06
0.51	-0.1895467442799879	0.01529529196888758	0.8113862387908479	0.9572915219443175	-0.2461377504181129	-0.07231441595490475	-0.34027335817159	0.8771254294256611	0.8771254294256464	0.0632370934298173	0.1745253282529428	0.2817591496099695	0.03897272301793745	-0.4800343078671883	-0.1535697388853067	-0.5238357267007604	2.060128740086379	-0.01870208832730456	0.4328896472494813	-0.5772407148476904	2.092142866149239	2.092142866149239	-0.176003351373879	-0.0002175929760214159	0.6070481333858964	0.1320016151368461	-0.1389958880766679	-0.02017657580097791	0.01662545620657791	-0.3631887159419515	0.07623872639840329	-0.00637296745864641	0.1791708186494571	-20.45607091478448	-17.11716178413613	-2.242624897887265	-3.205747841215897	0.8053719161173968	-663.94046344423	61.15747249612821	0.3875609829097958	0.5071598264784747	-0.4436404947733203	-1.396244750152404	0.1191772337285363	-0.3900344755502471	1.678030010982092	-1.6596612382169	-1.659661238216753	0.5482579226418562	0.01035562474243343	-0.7662165482656281	0.04714385054055166	-1.690147337721235e-07	-1.283929252184971e-07	1.532890862170219e-06	-8.632748141340545e-07	-9.244361194490703e-08	-2.299354637253648e-07	1.003702658043707e-06
0.52	-0.1943271853147043	0.01378511274961083	0.8061268902694471	0.9778204488893082	-0.2463184096483626	-0.06800507127057635	-0.3459609836160646	0.8979610503029135	0.8979610503029063	0.06150383595675132	0.1745229256017669	0.2877906245160436	0.0402955082284527	-0.475985920390927	-0.1484480421621321	-0.5279134069751905	2.045374144219867	-0.01742979959315709	0.4289514132036156	-0.5602116158699336	2.074687828474166	2.074687828474167	-0.1706514468309908	-0.0002595339706379331	0.5991611075671425	0.1325359797392196	-0.1460230200583307	-0.01872551733677986	0.01705527382106594	-0.3672697980533981	0.07308867325768896	-0.005364343896139948	0.185417834061045	-19.0924108972875	-18.37256527214745	-2.128504763842887	-3.105019768183074	1.223583751664598	-669.2202907213419	61.47853723655646	0.4190275380061401	0.516809160178157	-0.3720995925947257	-1.549104162305523	0.1433777416046967	-0.3925514405270196	1.730842218268336	-1.829214346018229	-1.829214346018224	0.5096338582563216	-0.03402614194749023	-0.8078753954246314	0.07156319164091918	-1.580937332004368e-07	-1.223178490902936e-07	1.419547823953475e-06	-8.198096884932957e-07	-8.405368862802968e-08	-2.162612409069247e-07	9.27446665526839e-07
0.53	-0.199065148662562	0.01232661230685687	0.800830413479974	0.998193520201215	-0.2464862825152155	-0.06373587330632358	-0.3514763124849519	0.9186134924507848	0.9186134924507733	0.0598239029830978	0.174520018395784	0.2937407419076141	0.04162316968912363	-0.4715420484129985	-0.1432410020074364	-0.5312574458963534	2.028968787382169	-0.0161455345030077	0.4248596579429983	-0.5427983178181101	2.055520817529429	2.05552081752943	-0.1653418797062388	-0.0003184973328527351	0.5907827790773149	0.1329763081035426	-0.1529446862504054	-0.01733331316421738	0.0174680684966007	-0.3714293721851299	0.06995527907183585	-0.004496750643171141	0.191542287893886	-17.73721043423611	-19.63537117856549	-2.087089386238463	-2.981096025948633	1.706509129182274	-674.5644562607106	61.69552752400488	0.466759873514453	0.5242921708900039	-0.2969221042104803	-1.726966442573869	0.1208115240341796	-0.4219808758762963	1.754949612031724	-2.002381532587725	-2.002381532587872	0.5407867856516182	0.008551588296195978	-0.8647841187374754	0.02738761757868765	-1.475997362686309e-07	-1.153055959542325e-07	1.311905915326918e-06	-7.746709012062515e-07	-7.746899819774464e-08	-2.006696579118582e-07	8.538665517174933e-07
0.54	-0.2037567347214747	0.01092051041120464	0.7955042230888228	1.018394394945128	-0.2466413406049043	-0.05950849155608297	-0.3568158331706434	0.9390658770764245	0.9390658770764229	0.05819689940990862	0.1745165981605259	0.299604681505691	0.04295465842518788	-0.4667104626019398	-0.1379683327417864	-0.5338561273108287	2.010934830621589	-0.01486684416030061	0.4205881704004934	-0.5250499792305859	2.034676324029241	2.034676324029241	-0.1600655667388092	-0.0003621398288798437	0.5819255488684613	0.1333014348178932	-0.1598663524424956	-0.01594110899163696	0.01788086317211087	-0.3755889463168604	0.06682188488599128	-0.00362915739017423	0.1976667417267089	-16.39353541565712	-20.90138503974343	-2.042008759315093	-2.862585087273813	2.177529934080133	-679.9659872686331	61.97352493403785	0.4965703046321763	0.5299349823690118	-0.2230280912572348	-1.87482414688196	0.1422627921162	-0.4284978969046147	1.797850325408422	-2.164710857108181	-2.164710857108179	0.5029830267918735	-0.03096196870987524	-0.903655739229854	0.04852286164638408	-1.375781688958418e-07	-1.072564661286269e-07	1.21057163943844e-06	-7.27680403161615e-07	-7.288158670581711e-08	-1.8295674025329e-07	7.832469845632782e-07
